<svg width="196" height="196" viewBox="0 0 196 196" fill="none" xmlns="http://www.w3.org/2000/svg">
<path d="M176.668 54.2828C174.102 48.3423 170.403 42.959 165.777 38.4344C161.147 33.8962 155.689 30.2899 149.699 27.8113C143.487 25.231 136.825 23.9103 130.099 23.9258C120.663 23.9258 111.456 26.5098 103.455 31.3906C101.541 32.5582 99.7227 33.8406 98 35.2379C96.2774 33.8406 94.459 32.5582 92.5449 31.3906C84.5441 26.5098 75.3375 23.9258 65.9012 23.9258C59.1063 23.9258 52.5219 25.2273 46.3012 27.8113C40.291 30.2996 34.8742 33.8789 30.223 38.4344C25.591 42.9539 21.8907 48.3384 19.332 54.2828C16.6715 60.4652 15.3125 67.0305 15.3125 73.7871C15.3125 80.1609 16.6141 86.8027 19.198 93.5594C21.3609 99.2059 24.4617 105.063 28.4238 110.977C34.702 120.337 43.3344 130.099 54.0531 139.995C71.8156 156.398 89.4059 167.729 90.1524 168.189L94.6887 171.098C96.6984 172.38 99.2824 172.38 101.292 171.098L105.829 168.189C106.575 167.71 124.146 156.398 141.928 139.995C152.646 130.099 161.279 120.337 167.557 110.977C171.519 105.063 174.639 99.2059 176.783 93.5594C179.367 86.8027 180.668 80.1609 180.668 73.7871C180.688 67.0305 179.329 60.4652 176.668 54.2828Z" fill="white"/>
</svg>
