<svg width="198" height="198" viewBox="0 0 198 198" fill="none" xmlns="http://www.w3.org/2000/svg">
<path d="M178.471 54.8367C175.879 48.8356 172.142 43.3974 167.469 38.8266C162.792 34.2421 157.278 30.599 151.226 28.0951C144.951 25.4885 138.221 24.1543 131.426 24.1699C121.894 24.1699 112.593 26.7803 104.511 31.711C102.577 32.8904 100.74 34.186 99 35.5975C97.2598 34.186 95.4228 32.8904 93.4893 31.711C85.4068 26.7803 76.1062 24.1699 66.5736 24.1699C59.7094 24.1699 53.0578 25.4848 46.7736 28.0951C40.7021 30.6088 35.2301 34.2246 30.5314 38.8266C25.8521 43.3922 22.1141 48.8317 19.5293 54.8367C16.8416 61.0822 15.4688 67.7145 15.4688 74.5401C15.4688 80.9789 16.7836 87.6885 19.3939 94.5141C21.5789 100.218 24.7113 106.135 28.7139 112.11C35.0561 121.565 43.7766 131.426 54.6047 141.423C72.5484 157.994 90.3182 169.441 91.0723 169.905L95.6549 172.844C97.6852 174.139 100.296 174.139 102.326 172.844L106.908 169.905C107.662 169.422 125.413 157.994 143.376 141.423C154.204 131.426 162.925 121.565 169.267 112.11C173.269 106.135 176.421 100.218 178.587 94.5141C181.197 87.6885 182.512 80.9789 182.512 74.5401C182.531 67.7145 181.158 61.0822 178.471 54.8367ZM99 157.549C99 157.549 30.1641 113.444 30.1641 74.5401C30.1641 54.8367 46.4643 38.8652 66.5736 38.8652C80.7082 38.8652 92.9672 46.7543 99 58.2785C105.033 46.7543 117.292 38.8652 131.426 38.8652C151.536 38.8652 167.836 54.8367 167.836 74.5401C167.836 113.444 99 157.549 99 157.549Z" fill="white"/>
</svg>
